<svg
  width="25"
  height="24"
  viewBox="0 0 25 24"
  fill="none"
  xmlns="http://www.w3.org/2000/svg"
>
<path
    d="M22.2867 2.94441e-05H1.88667C0.926672 2.94441e-05 0.0866718 0.723603 0.0866718 1.68843V22.3116C0.0866718 23.2764 0.926672 24 1.88667 24H22.2867C23.2467 24 24.0867 23.2764 24.0867 22.3116V1.68843C24.0867 0.844206 23.2467 2.94441e-05 22.2867 2.94441e-05ZM7.16667 20.6231H3.56667V9.16583H7.16667V20.6231ZM5.36667 7.47736C4.16667 7.47736 3.32667 6.51259 3.32667 5.42717C3.32667 4.34174 4.28667 3.3769 5.36667 3.3769C6.44667 3.3769 7.40667 4.34174 7.40667 5.42717C7.52667 6.63319 6.56667 7.47736 5.36667 7.47736ZM20.4867 20.6231H16.8867V15.0754C16.8867 13.7488 16.8867 12.0603 15.0867 12.0603C13.2867 12.0603 12.9267 13.5076 12.9267 15.0754V20.7437H9.32668V9.2864H12.6867V10.8543C13.1667 9.88948 14.3667 9.04526 16.0467 9.04526C19.6467 9.04526 20.3667 11.4573 20.3667 14.4724V20.6231H20.4867Z"
    fill="currentColor"
  />
</svg>
