<svg
  width="25"
  height="24"
  viewBox="0 0 25 24"
  fill="none"
  xmlns="http://www.w3.org/2000/svg"
>
<path
    fill-rule="evenodd"
    clip-rule="evenodd"
    d="M24.1733 5.24633C23.3458 5.60101 22.3999 5.83744 21.3359 5.95567C22.2817 5.36453 23.1093 4.4187 23.464 3.35467C22.5182 3.9458 21.4541 4.30048 20.3901 4.53693C19.5625 3.59112 18.262 3 16.8433 3C14.1241 3 11.996 5.12808 11.996 7.72906C11.996 8.08374 11.996 8.43845 12.1142 8.79313C8.09452 8.55668 4.54773 6.66504 2.06497 3.8276C1.59206 4.53696 1.35561 5.36455 1.35561 6.19213C1.35561 7.8473 2.18319 9.26598 3.48368 10.2118C2.6561 10.2118 1.94674 9.97534 1.23738 9.62066C1.23738 9.62066 1.23738 9.6207 1.23738 9.73893C1.23738 12.1035 2.89255 13.9951 5.13886 14.468C4.78418 14.5862 4.31127 14.5862 3.83837 14.5862C3.48369 14.5862 3.24723 14.5862 2.89255 14.468C3.48368 16.3596 5.25709 17.7783 7.38516 17.7783C5.72999 19.0788 3.60191 19.7882 1.35561 19.7882C1.00093 19.7882 0.528023 19.7881 0.173343 19.6699C2.30142 21.0886 4.9024 21.7981 7.62161 21.7981C16.4886 21.7981 21.4541 14.468 21.4541 8.202C21.4541 7.96555 21.4541 7.72909 21.4541 7.61087C22.7546 7.01973 23.5822 6.19215 24.1733 5.24633Z"
    fill="currentColor"
  />
</svg>
