<svg
  width="25"
  height="24"
  viewBox="0 0 25 24"
  fill="none"
  xmlns="http://www.w3.org/2000/svg"
>
<path
    d="M23.6646 6.6307C23.3907 5.60186 22.569 4.7814 21.5386 4.50791C19.6733 4 12.1733 4 12.1733 4C12.1733 4 4.6603 4.01302 2.79508 4.52093C1.76464 4.79442 0.942905 5.61488 0.668992 6.64372C0.17334 8.50605 0.17334 12.4 0.17334 12.4C0.17334 12.4 0.17334 16.294 0.682036 18.1693C0.955949 19.1981 1.77769 20.0186 2.80812 20.2921C4.67334 20.8 12.1733 20.8 12.1733 20.8C12.1733 20.8 19.6733 20.8 21.5386 20.2921C22.569 20.0186 23.3907 19.1981 23.6646 18.1693C24.1733 16.307 24.1733 12.4 24.1733 12.4C24.1733 12.4 24.1733 8.50605 23.6646 6.6307ZM9.77334 15.9944V8.80558L16.0081 12.4L9.77334 15.9944Z"
    fill="currentColor"
  />
</svg>
